<svg width="15" height="15" viewBox="0 0 15 15" fill="none" xmlns="http://www.w3.org/2000/svg">
<path d="M7.48779 15C3.35428 14.9954 0.00453938 11.6402 0 7.49996C0.294829 7.58337 0.59966 7.62601 0.906023 7.62671C1.9195 7.63415 2.87166 7.14131 3.45187 6.30897C3.97059 5.55866 4.0802 4.59818 3.7439 3.74998C3.95893 3.78839 4.1769 3.80797 4.39533 3.80848C5.3664 3.81573 6.28806 3.38024 6.9 2.62499C7.49883 1.89205 7.73297 0.926399 7.53646 0C11.6719 0.013462 15.0134 3.38222 15 7.52433C14.9865 11.6664 11.6232 15.0134 7.48779 15ZM8.05911 12.4259C8.1743 12.4755 8.29838 12.5011 8.42377 12.5009C8.80217 12.5006 9.14319 12.2722 9.28815 11.9221C9.43311 11.572 9.35353 11.1689 9.08644 10.9004C8.91041 10.7249 8.67218 10.6262 8.42377 10.6259C7.9794 10.627 7.59702 10.9408 7.50865 11.377C7.42028 11.8132 7.6503 12.2515 8.05911 12.4259ZM3.68399 11.1562C3.83404 11.2183 3.99486 11.2502 4.15722 11.2499C4.66381 11.2498 5.12008 10.943 5.31204 10.4734C5.504 10.0039 5.39357 9.46466 5.03255 9.1087C4.79917 8.87849 4.48477 8.74945 4.15722 8.74945C3.46832 8.75028 2.91017 9.30967 2.90976 9.9997C2.90988 10.5013 3.20858 10.9545 3.66902 11.1517H3.67276H3.681L3.68399 11.1562ZM10.7457 9.27595C11.249 9.48765 11.8313 9.34701 12.1829 8.9288C12.5345 8.51059 12.5739 7.91196 12.28 7.45121C12.1879 7.30769 12.0677 7.18444 11.9266 7.08896C11.5389 6.82679 11.0375 6.80366 10.6275 7.02904C10.2175 7.25442 9.96765 7.69048 9.98025 8.15878C9.99286 8.62708 10.2658 9.04902 10.6873 9.25195H10.6783L10.7008 9.2617L10.7158 9.2677H10.7113C10.722 9.27114 10.7325 9.27515 10.7427 9.2797L10.7457 9.27595ZM7.48779 6.24972C7.18914 6.24922 6.93194 6.46059 6.8741 6.75406C6.81625 7.04753 6.97395 7.34095 7.25038 7.45417C7.52681 7.5674 7.84458 7.46873 8.00861 7.21876C8.17264 6.96878 8.137 6.63746 7.92358 6.42822C7.86794 6.37333 7.80238 6.32955 7.7304 6.29922L7.71692 6.29322L7.6967 6.28572C7.62966 6.26175 7.55898 6.24957 7.48779 6.24972ZM10.2957 3.12523C9.81659 3.12404 9.41446 3.48655 9.36534 3.96392C9.31622 4.44129 9.63608 4.87833 10.1054 4.97505C10.5747 5.07176 11.0408 4.79672 11.1838 4.3387C11.3269 3.88069 11.1003 3.38861 10.6596 3.20023H10.6521C10.5394 3.15201 10.4183 3.12652 10.2957 3.12523ZM1.87195 5.62497C1.52747 5.62497 1.24821 5.34526 1.24821 5.00022C1.24821 4.65519 1.52747 4.37548 1.87195 4.37548C2.21643 4.37548 2.49568 4.65519 2.49568 5.00022C2.49527 5.34509 2.21626 5.62456 1.87195 5.62497ZM0.935974 3.74998C0.41905 3.74998 0 3.33025 0 2.81248C0 2.29472 0.41905 1.87499 0.935974 1.87499C1.4529 1.87499 1.87195 2.29472 1.87195 2.81248C1.87112 3.32991 1.45256 3.74915 0.935974 3.74998ZM4.67987 2.49974C4.16295 2.49974 3.7439 2.08001 3.7439 1.56224C3.7439 1.04448 4.16295 0.624747 4.67987 0.624747C5.19679 0.624747 5.61584 1.04448 5.61584 1.56224C5.61584 2.08013 5.19692 2.50007 4.67987 2.50049V2.49974ZM2.49643 1.25024C2.15205 1.25024 1.87283 0.970687 1.8727 0.625746C1.87256 0.280806 2.15155 0.00102618 2.49593 0.000749992C2.84031 0.000474216 3.11975 0.279807 3.12016 0.624747C3.12016 0.969906 2.84103 1.24983 2.49643 1.25024Z" fill="url(#paint0_linear_0_80)"/>
<defs>
<linearGradient id="paint0_linear_0_80" x1="15" y1="-4.08227" x2="7.31165" y2="-6.05218" gradientUnits="userSpaceOnUse">
<stop stop-color="#226CD0"/>
<stop offset="0.625" stop-color="#42FBFE"/>
</linearGradient>
</defs>
</svg>
