<svg width="15" height="15" viewBox="0 0 15 15" fill="none" xmlns="http://www.w3.org/2000/svg">
<path d="M8.33332 15H4.99999V5H8.33332V6.66667C9.04384 5.76271 10.1213 5.22381 11.2708 5.1975C13.338 5.20898 15.006 6.89115 15 8.95833V15H11.6666V9.375C11.5333 8.44386 10.7348 7.75298 9.79415 7.755C9.38271 7.76801 8.99435 7.94815 8.71868 8.25385C8.44301 8.55956 8.30385 8.96441 8.33332 9.375V15ZM3.33333 15H0V5H3.33333V15ZM1.66666 3.33333C0.74619 3.33333 0 2.58714 0 1.66667C0 0.746192 0.74619 0 1.66666 0C2.58714 0 3.33333 0.746192 3.33333 1.66667C3.33333 2.10869 3.15773 2.53262 2.84517 2.84518C2.53261 3.15774 2.10869 3.33333 1.66666 3.33333Z" fill="url(#paint0_linear_0_97)"/>
<defs>
<linearGradient id="paint0_linear_0_97" x1="15" y1="-4.08227" x2="7.31165" y2="-6.05218" gradientUnits="userSpaceOnUse">
<stop stop-color="#226CD0"/>
<stop offset="0.625" stop-color="#42FBFE"/>
</linearGradient>
</defs>
</svg>
