<svg width="12" height="15" viewBox="0 0 12 15" fill="none" xmlns="http://www.w3.org/2000/svg">
<path d="M5.99997 15C4.91735 14.1024 3.91385 13.1183 2.99999 12.0581C1.62856 10.4659 7.57421e-07 8.09476 7.57421e-07 5.83522C-0.0012148 3.47533 1.46078 1.34731 3.70375 0.444167C5.94673 -0.458975 8.52858 0.0407856 10.2445 1.71024C11.3729 2.80219 12.005 4.28753 12 5.83522C12 8.09476 10.3714 10.4659 8.99995 12.0581C8.08609 13.1183 7.08259 14.1024 5.99997 15ZM5.99997 3.33574C5.08129 3.33574 4.2324 3.81214 3.77306 4.58548C3.31372 5.35882 3.31372 6.31162 3.77306 7.08497C4.2324 7.85831 5.08129 8.33471 5.99997 8.33471C7.42012 8.33471 8.57139 7.21565 8.57139 5.83522C8.57139 4.4548 7.42012 3.33574 5.99997 3.33574Z" fill="url(#paint0_linear_0_85)"/>
<defs>
<linearGradient id="paint0_linear_0_85" x1="12" y1="-4.08227" x2="5.70982" y2="-5.37161" gradientUnits="userSpaceOnUse">
<stop stop-color="#226CD0"/>
<stop offset="0.625" stop-color="#42FBFE"/>
</linearGradient>
</defs>
</svg>
