<svg width="60" height="60" viewBox="0 0 60 60" fill="none" xmlns="http://www.w3.org/2000/svg">
<circle cx="30" cy="30" r="28.5" fill="#00003A" stroke="#0B0B42" stroke-width="3"/>
<g clip-path="url(#clip0_804_49)">
<g filter="url(#filter0_dii_804_49)">
<path fill-rule="evenodd" clip-rule="evenodd" d="M37.9502 41.0758C38.0043 40.9717 38.0562 40.8797 38.1004 40.7846C38.1283 40.7237 38.1712 40.7116 38.2317 40.7132C38.5947 40.7234 38.9576 40.7346 39.3208 40.7382C39.6293 40.7414 39.9384 40.7356 40.2472 40.7321C40.595 40.7279 40.9429 40.7097 41.2904 40.7196C41.7533 40.733 42.2043 40.8237 42.6229 41.0296C43.1229 41.276 43.5012 41.651 43.7591 42.1453C43.9237 42.4608 44.0192 42.7955 44.0573 43.1511C44.1124 43.6661 44.0762 44.1693 43.9128 44.662C43.7104 45.2725 43.326 45.7398 42.792 46.0899C42.3811 46.3593 41.9304 46.5185 41.4474 46.6095C40.9361 46.7059 40.4233 46.6748 39.9105 46.6764C39.348 46.6787 38.7859 46.6665 38.2234 46.6601C38.1251 46.6591 38.111 46.6406 38.1369 46.5467L38.161 46.4602C38.2157 46.2879 38.2452 46.2802 38.4201 46.2514C38.5412 46.2318 38.6667 46.1864 38.7683 46.1191C38.8272 46.08 38.8516 45.9782 38.8746 45.8997C38.8945 45.8311 38.8954 45.7559 38.8961 45.6835C38.9041 44.5864 38.9124 43.4896 38.9169 42.3932C38.9179 42.1161 38.9115 41.8384 38.8961 41.5617C38.8852 41.3679 38.7817 41.2353 38.5511 41.1895C38.3717 41.1539 38.1911 41.1264 38.0107 41.0947L37.9502 41.0758V41.0758ZM43.0995 43.7321C43.0752 43.5137 43.0633 43.2933 43.0243 43.078C42.9307 42.5614 42.7046 42.1113 42.3074 41.7587C41.6652 41.1888 40.8919 41.1011 40.0816 41.169C39.8971 41.1844 39.8573 41.2475 39.8545 41.4371C39.85 41.7061 39.8455 41.9752 39.8452 42.2443C39.8439 43.0976 39.8439 43.9509 39.8452 44.8042C39.8455 45.047 39.848 45.2898 39.8551 45.532C39.8628 45.7799 39.9528 45.9897 40.1956 46.0858C40.5784 46.2373 40.981 46.2552 41.3827 46.1934C42.0242 46.0951 42.473 45.7213 42.7741 45.161C43.0124 44.7164 43.0797 44.2312 43.0995 43.7321V43.7321ZM44.6591 46.6377C44.6515 46.5047 44.7059 46.3949 44.7732 46.294C44.7914 46.2668 44.8542 46.268 44.8975 46.2594L45.2645 46.1867C45.3943 46.1591 45.4625 46.072 45.4807 45.9448C45.4929 45.8609 45.5044 45.776 45.5054 45.6912C45.5134 45.0195 45.5211 44.3478 45.5243 43.6761C45.5275 43.0034 45.5249 42.3308 45.5249 41.6581L45.5221 41.5297C45.5089 41.3134 45.4045 41.2013 45.1899 41.1696L44.7245 41.0988C44.6671 41.0911 44.6463 41.0636 44.6671 41.0127C44.703 40.9259 44.7373 40.8359 44.7879 40.7577C44.8068 40.7289 44.8705 40.7177 44.9135 40.7186C45.1358 40.7218 45.3581 40.7385 45.5804 40.7382L47.5154 40.7266C47.8882 40.7263 48.2482 40.7913 48.5826 40.9697C48.9507 41.1658 49.1566 41.4691 49.2156 41.8823C49.2771 42.3163 49.1454 42.6821 48.8283 42.9727C48.698 43.0925 48.5292 43.1706 48.378 43.268L48.3286 43.2987C48.4689 43.3503 48.6025 43.3948 48.7326 43.448C49.1131 43.604 49.4158 43.8478 49.5759 44.2369C49.7025 44.5441 49.7025 44.8644 49.6275 45.1828C49.5109 45.6812 49.1826 46.0127 48.7556 46.2635C48.3549 46.499 47.9212 46.6361 47.4593 46.6591C47.0333 46.6806 46.6054 46.6726 46.1784 46.6774L45.9311 46.6787C45.5198 46.6694 45.1082 46.6588 44.6966 46.6479L44.6591 46.6377V46.6377ZM46.4327 44.6873H46.4369C46.4369 44.8981 46.434 45.1088 46.4378 45.3196C46.4404 45.456 46.4356 45.5963 46.4651 45.7277C46.5093 45.924 46.599 46.1012 46.8193 46.1575C47.1169 46.2341 47.4209 46.2495 47.722 46.1972C48.099 46.1316 48.3998 45.9426 48.5647 45.5835C48.6871 45.3167 48.7053 45.0339 48.6634 44.7449C48.6076 44.3644 48.4055 44.0883 48.0695 43.9073C47.8491 43.7885 47.614 43.7158 47.3635 43.7062C47.0829 43.6956 46.802 43.695 46.5214 43.6863C46.4426 43.6841 46.4317 43.7241 46.4321 43.7888C46.4337 44.088 46.4327 44.3875 46.4327 44.6873V44.6873ZM47.0301 43.2539C47.1835 43.2462 47.3571 43.244 47.5298 43.2267C47.8603 43.1937 48.0932 43.0274 48.2146 42.7113C48.2764 42.5508 48.2739 42.3855 48.2755 42.2186C48.2803 41.784 48.0266 41.4278 47.6137 41.2804C47.295 41.1667 46.9664 41.1648 46.6358 41.1738C46.5019 41.1773 46.442 41.2359 46.4401 41.3708L46.4202 43.129C46.4193 43.1988 46.4494 43.2289 46.5173 43.2312L47.0301 43.2539V43.2539Z" fill="white"/>
</g>
<g filter="url(#filter1_dii_804_49)">
<path fill-rule="evenodd" clip-rule="evenodd" d="M13.3766 46.2998L13.3532 46.6021C13.1354 46.6021 12.9345 46.6005 12.7337 46.6028C12.3554 46.6066 11.9771 46.6127 11.5985 46.6182L11.562 46.6204C11.5079 46.614 11.4095 46.614 11.407 46.598C11.391 46.508 11.3961 46.4135 11.4003 46.3203C11.4006 46.3097 11.4374 46.2962 11.4589 46.2911L11.7532 46.2254C11.9368 46.1777 12.0015 46.0986 12.0101 45.909C12.0201 45.6953 12.03 45.4814 12.0309 45.2677C12.0338 44.7418 12.0306 44.2164 12.0329 43.6905C12.0332 43.5675 11.9906 43.4759 11.8759 43.4259C11.7395 43.3657 11.6024 43.3068 11.4643 43.251C11.399 43.2248 11.3141 43.2103 11.3218 43.1226C11.3295 43.0332 11.4118 43.0098 11.4893 42.9922C11.8103 42.9189 12.1315 42.8474 12.4515 42.7693C12.5547 42.744 12.6533 42.7014 12.7766 42.6584C12.783 42.7251 12.7949 42.7885 12.7936 42.8519L12.7747 43.1533C12.7744 43.1873 12.792 43.2328 12.8173 43.2517C12.8327 43.2635 12.8843 43.2421 12.9099 43.2222C13.1834 43.014 13.473 42.8343 13.8032 42.7296C14.3148 42.5672 14.7539 42.7177 15.0614 43.1588C15.1697 43.3141 15.17 43.3141 15.3202 43.2055C15.5781 43.0182 15.8478 42.8529 16.1495 42.744C16.8119 42.5047 17.4484 42.8084 17.6787 43.4756C17.7626 43.7177 17.7947 43.9679 17.794 44.2235L17.7879 45.9205C17.7876 46.0605 17.834 46.1402 17.9673 46.1838C18.1169 46.2328 18.2719 46.2664 18.4404 46.3107L18.4013 46.6025C18.2098 46.6025 18.0336 46.6012 17.8574 46.6028C17.4269 46.6066 16.9964 46.6089 16.5663 46.6188C16.4913 46.6207 16.4718 46.6021 16.4679 46.532C16.4554 46.3074 16.4535 46.3078 16.6649 46.2572L16.736 46.2389C16.9426 46.1825 17.0115 46.1191 17.0131 45.9096C17.0179 45.3081 17.0304 44.7049 17 44.1047C16.9682 43.482 16.474 43.1504 15.8705 43.31C15.6735 43.3619 15.4951 43.4528 15.3292 43.5707C15.2732 43.6107 15.2626 43.6569 15.2671 43.727C15.284 43.9922 15.2946 44.2578 15.2969 44.5233C15.3007 44.9881 15.2949 45.4529 15.2969 45.9179C15.2975 46.1063 15.3619 46.1784 15.548 46.2219L15.8244 46.2857L15.8757 46.2972C15.8795 46.3856 15.883 46.474 15.8789 46.5624C15.8763 46.6178 15.8334 46.6226 15.7853 46.6217C15.5166 46.6149 15.2475 46.606 14.9788 46.6066C14.6517 46.6073 14.325 46.6165 13.9983 46.6223H13.9214C13.9214 46.5285 13.9169 46.4388 13.9246 46.3494C13.9262 46.3279 13.964 46.2978 13.99 46.2911L14.3122 46.2229C14.449 46.1893 14.5143 46.1191 14.522 45.9801C14.5585 45.3363 14.5848 44.6921 14.5243 44.0486C14.5124 43.9237 14.4717 43.7968 14.4198 43.6818C14.2549 43.3173 13.8836 43.1652 13.4554 43.2747C13.252 43.3266 13.0684 43.4198 12.8948 43.5374C12.8128 43.5931 12.7738 43.6668 12.7738 43.76C12.7738 44.4022 12.776 45.0445 12.7779 45.6864L12.7814 45.934C12.7853 46.1066 12.8586 46.1976 13.03 46.2347C13.1402 46.2597 13.2517 46.2767 13.3766 46.2998V46.2998Z" fill="#F8E0A8"/>
</g>
<g filter="url(#filter2_dii_804_49)">
<path fill-rule="evenodd" clip-rule="evenodd" d="M32.7425 42.7241C32.7922 42.9656 32.7912 43.1828 32.6137 43.3474C32.4376 43.5111 32.2146 43.456 31.9971 43.4195C32.0173 43.5342 32.0397 43.6316 32.0506 43.7302C32.1297 44.4634 31.8142 45.0076 31.1342 45.3186C30.8773 45.4359 30.6047 45.4794 30.3264 45.5019C30.188 45.5128 30.0669 45.6185 30.0538 45.7322C30.0403 45.8475 30.1127 45.966 30.2575 46.0006C30.4282 46.0413 30.6063 46.0528 30.7816 46.073C31.1576 46.1159 31.5378 46.1354 31.9094 46.2027C32.4712 46.3039 32.7848 46.7943 32.6858 47.3587C32.5977 47.861 32.3069 48.2264 31.9014 48.5067C31.2181 48.9801 30.4686 49.1185 29.6704 48.877C29.2139 48.7386 28.892 48.4385 28.7809 47.9529C28.7251 47.7098 28.7844 47.4897 28.9673 47.3248C29.1848 47.1294 29.4215 46.9551 29.6492 46.7706L29.7229 46.6966L29.6384 46.6374C29.4061 46.5272 29.2203 46.3763 29.1483 46.1143C29.1236 46.0256 29.1492 45.9673 29.2245 45.9218C29.3526 45.8446 29.4801 45.7661 29.6066 45.6864C29.6662 45.6492 29.7252 45.6108 29.7806 45.5678C29.8562 45.5102 29.8494 45.4673 29.7591 45.434C29.549 45.3564 29.3622 45.244 29.2175 45.071C28.9756 44.7824 28.9071 44.4387 28.9269 44.0758C28.958 43.5089 29.2658 43.1354 29.7662 42.8952C30.361 42.6098 30.9577 42.5918 31.5641 42.8519C31.7883 42.948 32.0247 42.9685 32.2652 42.9519C32.4449 42.939 32.6019 42.8711 32.7425 42.7241V42.7241ZM30.5506 46.786C30.1041 46.7822 29.9641 46.8372 29.7021 47.1041C29.4087 47.4032 29.4103 47.818 29.7031 48.1185C29.9254 48.3462 30.2027 48.4529 30.5112 48.4849C30.8716 48.5221 31.2265 48.507 31.5538 48.3267C31.903 48.1335 32.0766 47.7748 31.9981 47.4135C31.9331 47.1153 31.7133 46.9788 31.4459 46.9003C31.1416 46.8113 30.827 46.7943 30.5506 46.786V46.786ZM29.6736 43.9327C29.6899 44.0566 29.6967 44.1822 29.7242 44.3036C29.7956 44.6181 29.9324 44.8945 30.2454 45.0345C30.6127 45.1995 31.082 45.1287 31.2428 44.613C31.353 44.2597 31.3395 43.9089 31.2066 43.5643C31.1474 43.4105 31.0519 43.2805 30.9151 43.185C30.5961 42.9624 30.0205 42.933 29.786 43.425C29.7098 43.5848 29.68 43.7549 29.6736 43.9327V43.9327Z" fill="#F8E0A8"/>
</g>
<g filter="url(#filter3_dii_804_49)">
<path fill-rule="evenodd" clip-rule="evenodd" d="M25.1664 42.645C25.1782 42.6998 25.2019 42.7619 25.2026 42.8244C25.2035 42.9432 25.1907 43.062 25.184 43.1809V43.284L25.2846 43.2071C25.5601 42.9804 25.856 42.7872 26.2007 42.6831C26.8227 42.4957 27.4441 42.8362 27.6469 43.4698C27.7238 43.7107 27.7542 43.9583 27.7571 44.21C27.7635 44.7693 27.7673 45.3286 27.7731 45.8878C27.775 46.0887 27.7981 46.1245 27.988 46.1825C28.0957 46.2155 28.2068 46.2386 28.3179 46.2559C28.3791 46.2655 28.4054 46.2895 28.4022 46.3494L28.4028 46.4045C28.4006 46.6361 28.3846 46.6467 28.16 46.646C27.6225 46.6451 27.0854 46.6483 26.5479 46.6527C26.3877 46.654 26.3874 46.6588 26.3714 46.5006L26.3682 46.4096C26.3781 46.2732 26.3813 46.2744 26.5155 46.2546C26.6059 46.2411 26.6956 46.2203 26.7837 46.1973C26.8743 46.1739 26.9179 46.1069 26.93 46.0172C26.9361 45.9718 26.9441 45.9263 26.9438 45.8808C26.9361 45.2696 26.946 44.6578 26.9127 44.0476C26.8858 43.554 26.5091 43.26 26.0136 43.2936C25.7705 43.3106 25.5508 43.3916 25.3503 43.5316C25.218 43.6242 25.1914 43.7578 25.192 43.9016C25.1946 44.473 25.2 45.0445 25.2061 45.6162C25.2074 45.7415 25.2109 45.8667 25.2228 45.991C25.2353 46.1268 25.283 46.1816 25.4162 46.211C25.5437 46.2392 25.6738 46.2556 25.8099 46.2783L25.8214 46.3834C25.8259 46.6284 25.8003 46.6467 25.5623 46.6457C25.0066 46.6434 24.4508 46.647 23.8954 46.6531C23.8079 46.6543 23.7708 46.6268 23.773 46.5416L23.7718 46.5051C23.7573 46.2844 23.7637 46.2761 23.9726 46.2402L24.0712 46.2203C24.2974 46.1694 24.3554 46.1092 24.3586 45.8795C24.3691 45.1521 24.373 44.425 24.3803 43.6975C24.3813 43.5931 24.3419 43.5121 24.2445 43.4688C24.1081 43.4086 23.9703 43.3513 23.8323 43.2946C23.7561 43.2632 23.6689 43.2433 23.666 43.138C23.6641 43.0636 23.7436 42.998 23.8522 42.9759C24.0703 42.9317 24.2903 42.8948 24.5059 42.8407C24.7205 42.7872 24.9313 42.7155 25.1664 42.645Z" fill="#F8E0A8"/>
</g>
<g filter="url(#filter4_dii_804_49)">
<path fill-rule="evenodd" clip-rule="evenodd" d="M37.1832 44.5451C37.1729 45.2245 36.9964 45.7738 36.516 46.186C35.9074 46.7091 34.958 46.8869 34.1819 46.4958C33.8507 46.3289 33.6072 46.073 33.4487 45.7408C33.2055 45.2299 33.1447 44.6927 33.2715 44.1424C33.3971 43.5982 33.7267 43.2039 34.22 42.9486C34.7274 42.6863 35.2616 42.5838 35.8251 42.7215C36.5378 42.8955 37.0499 43.4765 37.1518 44.2164C37.1701 44.3462 37.1771 44.4775 37.1832 44.5451V44.5451ZM36.3577 44.9131L36.3302 44.9099C36.3302 44.8458 36.3337 44.7818 36.3296 44.7177C36.3062 44.3186 36.2165 43.9384 35.9852 43.6043C35.7658 43.2878 35.467 43.1011 35.0781 43.0739C34.6428 43.0431 34.277 43.2866 34.1485 43.7312C33.9557 44.3987 34.0211 45.0492 34.36 45.6607C34.5076 45.9272 34.7264 46.1239 35.0195 46.2274C35.5938 46.4295 36.1031 46.1678 36.2527 45.5797C36.3078 45.3625 36.3238 45.1354 36.3577 44.9131Z" fill="#F8E0A8"/>
</g>
<g filter="url(#filter5_dii_804_49)">
<path fill-rule="evenodd" clip-rule="evenodd" d="M23.0746 44.5976C23.0628 45.0851 22.9478 45.5358 22.6467 45.9275C22.3242 46.3472 21.8808 46.5714 21.3767 46.6659C20.7806 46.7773 20.2207 46.6761 19.7418 46.276C19.5144 46.0858 19.359 45.842 19.2565 45.5646C19.0884 45.1098 19.0464 44.6437 19.1499 44.1687C19.2604 43.6604 19.5474 43.2718 19.9923 43.0111C20.5067 42.7103 21.0618 42.5761 21.6547 42.7113C22.417 42.8855 22.8571 43.3823 23.0199 44.1344C23.0525 44.2863 23.057 44.4432 23.0746 44.5976V44.5976ZM22.2399 44.9192L22.2178 44.916V44.8244C22.2053 44.3772 22.1179 43.9512 21.851 43.5797C21.6534 43.3039 21.3888 43.1309 21.0496 43.0825C20.4968 43.0037 20.1355 43.3317 20.0157 43.7773C19.8593 44.3593 19.9084 44.9343 20.1502 45.4861C20.3011 45.8302 20.5394 46.0983 20.9055 46.2283C21.4763 46.4311 21.9933 46.1627 22.1377 45.5768C22.1909 45.3625 22.2069 45.1389 22.2399 44.9192V44.9192Z" fill="#F8E0A8"/>
</g>
<g filter="url(#filter6_i_804_49)">
<path fill-rule="evenodd" clip-rule="evenodd" d="M36.3818 19.7446C36.7748 20.8807 37.0573 22.0406 37.1505 23.2424C37.2658 24.7338 37.2133 26.2149 36.8988 27.6816L36.8584 27.7988C36.7597 27.7991 36.6592 27.7867 36.5628 27.8017C35.7482 27.9298 34.9346 28.0624 34.1207 28.1944C33.2792 28.3309 32.4371 28.4619 31.5973 28.6073C31.2997 28.6585 30.9313 28.5974 30.8112 29.0086L30.7536 29.0282L30.7942 26.5688L30.7529 20.6347L31.145 20.5675C31.7859 20.4627 32.4269 20.356 33.0688 20.2539C33.8343 20.1325 34.6005 20.014 35.3667 19.8954C35.705 19.8435 36.0435 19.7952 36.3818 19.7446V19.7446Z" fill="#439934"/>
</g>
<g filter="url(#filter7_i_804_49)">
<path fill-rule="evenodd" clip-rule="evenodd" d="M29.9444 36.198C29.5309 35.8425 29.1029 35.5026 28.7067 35.1285C26.5741 33.117 25.0138 30.7489 24.2454 27.8939C24.0337 27.1085 23.8927 26.31 23.8473 25.4983C23.8152 24.9301 23.7694 24.3571 23.8098 23.7917C23.9164 22.2885 24.1339 20.7997 24.5747 19.3515L24.599 19.3179C24.6419 19.3749 24.7034 19.4255 24.7252 19.4899C25.1557 20.7571 25.5827 22.0255 26.0078 23.2949C27.3431 27.2831 28.6769 31.2723 30.0145 35.2599C30.0408 35.3377 30.1084 35.4014 30.1571 35.4716L29.9444 36.198V36.198Z" fill="#45A538"/>
</g>
<g filter="url(#filter8_i_804_49)">
<path fill-rule="evenodd" clip-rule="evenodd" d="M36.3813 19.7446C36.0427 19.7949 35.7041 19.8435 35.3662 19.8954C34.6 20.0139 33.8338 20.1325 33.0683 20.2539C32.4267 20.3557 31.7858 20.4624 31.1445 20.5674L30.7524 20.6347L30.7492 20.3791C30.7361 20.169 30.7143 19.9589 30.7114 19.7487L30.6675 15.7275C30.6573 14.8886 30.6419 14.0497 30.6249 13.2112C30.6144 12.69 30.6032 12.1685 30.5798 11.648C30.567 11.3684 30.5218 11.09 30.5039 10.8104C30.4933 10.6496 30.5074 10.4875 30.5109 10.3261C30.7108 10.7134 30.9065 11.1035 31.1118 11.4879C31.4363 12.0955 31.9536 12.5433 32.4197 13.0318C34.2602 14.9636 35.5667 17.2083 36.3813 19.7446V19.7446Z" fill="#46A037"/>
</g>
<g filter="url(#filter9_i_804_49)">
<path fill-rule="evenodd" clip-rule="evenodd" d="M30.7533 29.0282L30.811 29.0086C30.9311 28.5974 31.2995 28.6585 31.597 28.6073C32.4369 28.4619 33.279 28.3309 34.1204 28.1944C34.9344 28.0628 35.748 27.9302 36.5625 27.8017C36.6589 27.7867 36.7595 27.7991 36.8582 27.7988C36.706 28.3421 36.5862 28.8972 36.3931 29.4254C36.1737 30.0244 35.9084 30.6092 35.6269 31.1826C35.206 32.0394 34.6816 32.8389 34.0724 33.5715C33.6028 34.1359 33.0794 34.6583 32.5551 35.1737C32.2649 35.4585 31.9234 35.6907 31.605 35.9469L31.5224 35.8906L31.2255 35.6369L30.9183 34.9629C30.7066 34.1743 30.5957 33.3716 30.5771 32.5555L30.5829 32.4184L30.6249 31.8245C30.6386 31.6218 30.6572 31.4193 30.6659 31.2166C30.6966 30.4875 30.7242 29.7579 30.7533 29.0282V29.0282Z" fill="#409433"/>
</g>
<g filter="url(#filter10_i_804_49)">
<path fill-rule="evenodd" clip-rule="evenodd" d="M30.7534 29.0282C30.7246 29.7578 30.6971 30.4878 30.666 31.2175C30.6573 31.4206 30.6391 31.623 30.625 31.8255L30.4379 31.8963C30.0222 30.6723 29.6061 29.4612 29.1993 28.2473C28.5263 26.2386 27.8617 24.227 27.1896 22.2177C26.6474 20.5963 26.1003 18.9758 25.5503 17.3566C25.5243 17.281 25.4507 17.2215 25.3994 17.1545L26.5974 14.9517C26.6387 15.0232 26.6928 15.0901 26.7188 15.167C27.2729 16.807 27.8261 18.4473 28.3745 20.0892C29.0881 22.2257 29.797 24.3631 30.51 26.4999C30.5385 26.5852 30.5853 26.6639 30.6301 26.7597L30.7941 26.5688C30.7803 27.3888 30.7669 28.2082 30.7534 29.0282Z" fill="#4FAA41"/>
</g>
<g filter="url(#filter11_i_804_49)">
<path fill-rule="evenodd" clip-rule="evenodd" d="M25.3994 17.1545C25.451 17.2215 25.5247 17.281 25.5503 17.3566C26.1003 18.9758 26.6474 20.5959 27.1896 22.2177C27.8617 24.227 28.5263 26.2386 29.1993 28.2473C29.6061 29.4612 30.0222 30.672 30.4379 31.8963L30.625 31.8255L30.583 32.4193L30.5449 32.5561C30.4799 33.206 30.4251 33.8572 30.3457 34.5058C30.306 34.831 30.2211 35.15 30.1567 35.4716C30.1083 35.4014 30.0404 35.3377 30.0142 35.2599C28.6762 31.2723 27.3427 27.2831 26.0074 23.2949C25.5823 22.0255 25.155 20.7571 24.7248 19.4899C24.7031 19.4255 24.6416 19.3749 24.5986 19.3179L25.3994 17.1545V17.1545Z" fill="#4AA73C"/>
</g>
<g filter="url(#filter12_i_804_49)">
<path fill-rule="evenodd" clip-rule="evenodd" d="M30.7944 26.5688L30.6304 26.7597C30.5855 26.664 30.5388 26.5852 30.5103 26.5C29.7973 24.3631 29.0884 22.2257 28.3747 20.0892C27.8264 18.4473 27.2732 16.807 26.7191 15.167C26.6931 15.0901 26.639 15.0232 26.5977 14.9517L28.0791 13.0029C28.1259 13.0651 28.1925 13.1205 28.2165 13.1906C28.6278 14.395 29.0352 15.6004 29.4407 16.8067C29.8194 17.9335 30.1922 19.0617 30.5753 20.1866C30.6009 20.2619 30.6903 20.315 30.7499 20.3791L30.7531 20.6347L30.7944 26.5688V26.5688Z" fill="#57AE47"/>
</g>
<g filter="url(#filter13_i_804_49)">
<path fill-rule="evenodd" clip-rule="evenodd" d="M30.7499 20.3791C30.69 20.3154 30.6009 20.2622 30.5753 20.1866C30.1925 19.0617 29.8194 17.9335 29.4407 16.8067C29.0352 15.6004 28.6278 14.395 28.2165 13.1907C28.1925 13.1205 28.1259 13.0651 28.0791 13.0029C28.5609 12.5311 29.0275 12.0423 29.5288 11.5923C29.9744 11.1925 30.3325 10.764 30.3492 10.132L30.3844 10.0061L30.5112 10.3258C30.508 10.4872 30.4936 10.6493 30.5042 10.8101C30.5224 11.0897 30.5676 11.3681 30.5801 11.6477C30.6035 12.1682 30.6147 12.6897 30.6253 13.2108C30.6422 14.0494 30.6576 14.8883 30.6679 15.7272L30.7118 19.7484C30.715 19.9589 30.7371 20.169 30.7499 20.3791V20.3791Z" fill="#60B24F"/>
</g>
<path fill-rule="evenodd" clip-rule="evenodd" d="M30.1573 35.4713C30.2217 35.1497 30.3066 34.8306 30.3463 34.5055C30.4258 33.8572 30.4805 33.2057 30.5456 32.5558L30.5619 32.5532L30.5779 32.5561C30.5965 33.3723 30.7073 34.175 30.919 34.9636C30.8758 35.0206 30.8153 35.0709 30.7922 35.1349C30.6144 35.6366 30.4466 36.1423 30.2679 36.6436C30.2435 36.7122 30.175 36.7657 30.1272 36.8256L29.9443 36.1977L30.1573 35.4713Z" fill="#A9AA88"/>
<path fill-rule="evenodd" clip-rule="evenodd" d="M30.127 36.8259C30.1747 36.7657 30.2432 36.7125 30.2676 36.6439C30.4463 36.1426 30.6141 35.6369 30.7919 35.1353C30.8147 35.0712 30.8755 35.0209 30.9188 34.9639L31.2259 35.6378C31.1654 35.7237 31.0815 35.8015 31.0479 35.8973L30.4598 37.6244C30.4354 37.6939 30.3531 37.7426 30.2974 37.8012L30.127 36.8259V36.8259Z" fill="#B6B598"/>
<path fill-rule="evenodd" clip-rule="evenodd" d="M30.2969 37.8009C30.3523 37.7423 30.4349 37.6936 30.4593 37.6241L31.0474 35.897C31.0807 35.8012 31.1649 35.7234 31.2255 35.6375L31.5227 35.8909C31.3792 36.0328 31.2995 36.1968 31.3475 36.404L31.2572 36.6997C31.2162 36.7503 31.1566 36.7945 31.1364 36.8525C30.9311 37.4406 30.7354 38.0318 30.5285 38.6196C30.5022 38.6939 30.4295 38.7526 30.3786 38.8185L30.2969 37.8009V37.8009Z" fill="#C2C1A7"/>
<path fill-rule="evenodd" clip-rule="evenodd" d="M30.3789 38.8182C30.4301 38.7522 30.5028 38.6936 30.5288 38.6193C30.7357 38.0315 30.9317 37.4402 31.1367 36.8521C31.1569 36.7942 31.2165 36.7503 31.2575 36.6993L31.1329 38.0562C31.0996 38.0946 31.0515 38.1283 31.0355 38.1728L30.621 39.3605C30.5919 39.4415 30.5361 39.5139 30.4926 39.5898C30.4538 39.5392 30.3846 39.4902 30.3814 39.4377C30.3693 39.2321 30.3779 39.0248 30.3789 38.8182V38.8182Z" fill="#CECDB7"/>
<path fill-rule="evenodd" clip-rule="evenodd" d="M30.4922 39.5902C30.5358 39.5142 30.5915 39.4419 30.6206 39.3608L31.0351 38.1731C31.0511 38.1283 31.0995 38.0949 31.1325 38.0565L31.1357 38.947L30.8375 39.7116L30.4922 39.5902V39.5902Z" fill="#DBDAC7"/>
<path fill-rule="evenodd" clip-rule="evenodd" d="M30.8379 39.7116L31.1361 38.947L31.1976 39.8515L30.8379 39.7116V39.7116Z" fill="#EBE9DC"/>
<path fill-rule="evenodd" clip-rule="evenodd" d="M31.3479 36.404C31.3001 36.1971 31.3796 36.0331 31.5231 35.8909L31.6057 35.9472L31.3479 36.404V36.404Z" fill="#CECDB7"/>
<path fill-rule="evenodd" clip-rule="evenodd" d="M30.5773 32.5564L30.5613 32.5535L30.5449 32.5561L30.583 32.4193L30.5773 32.5564V32.5564Z" fill="#4FAA41"/>
</g>
<defs>
<filter id="filter0_dii_804_49" x="36.9502" y="40.213" width="13.7285" height="7.96693" filterUnits="userSpaceOnUse" color-interpolation-filters="sRGB">
<feFlood flood-opacity="0" result="BackgroundImageFix"/>
<feColorMatrix in="SourceAlpha" type="matrix" values="0 0 0 0 0 0 0 0 0 0 0 0 0 0 0 0 0 0 127 0" result="hardAlpha"/>
<feOffset dy="0.5"/>
<feGaussianBlur stdDeviation="0.5"/>
<feComposite in2="hardAlpha" operator="out"/>
<feColorMatrix type="matrix" values="0 0 0 0 0 0 0 0 0 0 0 0 0 0 0 0 0 0 0.21 0"/>
<feBlend mode="normal" in2="BackgroundImageFix" result="effect1_dropShadow_804_49"/>
<feBlend mode="normal" in="SourceGraphic" in2="effect1_dropShadow_804_49" result="shape"/>
<feColorMatrix in="SourceAlpha" type="matrix" values="0 0 0 0 0 0 0 0 0 0 0 0 0 0 0 0 0 0 127 0" result="hardAlpha"/>
<feOffset dx="0.1"/>
<feGaussianBlur stdDeviation="0.1"/>
<feComposite in2="hardAlpha" operator="arithmetic" k2="-1" k3="1"/>
<feColorMatrix type="matrix" values="0 0 0 0 0 0 0 0 0 0 0 0 0 0 0 0 0 0 0.25 0"/>
<feBlend mode="normal" in2="shape" result="effect2_innerShadow_804_49"/>
<feColorMatrix in="SourceAlpha" type="matrix" values="0 0 0 0 0 0 0 0 0 0 0 0 0 0 0 0 0 0 127 0" result="hardAlpha"/>
<feOffset dx="-0.3"/>
<feGaussianBlur stdDeviation="0.05"/>
<feComposite in2="hardAlpha" operator="arithmetic" k2="-1" k3="1"/>
<feColorMatrix type="matrix" values="0 0 0 0 1 0 0 0 0 1 0 0 0 0 1 0 0 0 0.36 0"/>
<feBlend mode="normal" in2="effect2_innerShadow_804_49" result="effect3_innerShadow_804_49"/>
</filter>
<filter id="filter1_dii_804_49" x="10.3213" y="42.1584" width="9.11914" height="5.96387" filterUnits="userSpaceOnUse" color-interpolation-filters="sRGB">
<feFlood flood-opacity="0" result="BackgroundImageFix"/>
<feColorMatrix in="SourceAlpha" type="matrix" values="0 0 0 0 0 0 0 0 0 0 0 0 0 0 0 0 0 0 127 0" result="hardAlpha"/>
<feOffset dy="0.5"/>
<feGaussianBlur stdDeviation="0.5"/>
<feComposite in2="hardAlpha" operator="out"/>
<feColorMatrix type="matrix" values="0 0 0 0 0 0 0 0 0 0 0 0 0 0 0 0 0 0 0.21 0"/>
<feBlend mode="normal" in2="BackgroundImageFix" result="effect1_dropShadow_804_49"/>
<feBlend mode="normal" in="SourceGraphic" in2="effect1_dropShadow_804_49" result="shape"/>
<feColorMatrix in="SourceAlpha" type="matrix" values="0 0 0 0 0 0 0 0 0 0 0 0 0 0 0 0 0 0 127 0" result="hardAlpha"/>
<feOffset dx="0.1"/>
<feGaussianBlur stdDeviation="0.1"/>
<feComposite in2="hardAlpha" operator="arithmetic" k2="-1" k3="1"/>
<feColorMatrix type="matrix" values="0 0 0 0 0 0 0 0 0 0 0 0 0 0 0 0 0 0 0.25 0"/>
<feBlend mode="normal" in2="shape" result="effect2_innerShadow_804_49"/>
<feColorMatrix in="SourceAlpha" type="matrix" values="0 0 0 0 0 0 0 0 0 0 0 0 0 0 0 0 0 0 127 0" result="hardAlpha"/>
<feOffset dx="-0.3"/>
<feGaussianBlur stdDeviation="0.05"/>
<feComposite in2="hardAlpha" operator="arithmetic" k2="-1" k3="1"/>
<feColorMatrix type="matrix" values="0 0 0 0 1 0 0 0 0 1 0 0 0 0 1 0 0 0 0.36 0"/>
<feBlend mode="normal" in2="effect2_innerShadow_804_49" result="effect3_innerShadow_804_49"/>
</filter>
<filter id="filter2_dii_804_49" x="27.7607" y="42.1683" width="6.00977" height="8.3253" filterUnits="userSpaceOnUse" color-interpolation-filters="sRGB">
<feFlood flood-opacity="0" result="BackgroundImageFix"/>
<feColorMatrix in="SourceAlpha" type="matrix" values="0 0 0 0 0 0 0 0 0 0 0 0 0 0 0 0 0 0 127 0" result="hardAlpha"/>
<feOffset dy="0.5"/>
<feGaussianBlur stdDeviation="0.5"/>
<feComposite in2="hardAlpha" operator="out"/>
<feColorMatrix type="matrix" values="0 0 0 0 0 0 0 0 0 0 0 0 0 0 0 0 0 0 0.21 0"/>
<feBlend mode="normal" in2="BackgroundImageFix" result="effect1_dropShadow_804_49"/>
<feBlend mode="normal" in="SourceGraphic" in2="effect1_dropShadow_804_49" result="shape"/>
<feColorMatrix in="SourceAlpha" type="matrix" values="0 0 0 0 0 0 0 0 0 0 0 0 0 0 0 0 0 0 127 0" result="hardAlpha"/>
<feOffset dx="0.1"/>
<feGaussianBlur stdDeviation="0.1"/>
<feComposite in2="hardAlpha" operator="arithmetic" k2="-1" k3="1"/>
<feColorMatrix type="matrix" values="0 0 0 0 0 0 0 0 0 0 0 0 0 0 0 0 0 0 0.25 0"/>
<feBlend mode="normal" in2="shape" result="effect2_innerShadow_804_49"/>
<feColorMatrix in="SourceAlpha" type="matrix" values="0 0 0 0 0 0 0 0 0 0 0 0 0 0 0 0 0 0 127 0" result="hardAlpha"/>
<feOffset dx="-0.3"/>
<feGaussianBlur stdDeviation="0.05"/>
<feComposite in2="hardAlpha" operator="arithmetic" k2="-1" k3="1"/>
<feColorMatrix type="matrix" values="0 0 0 0 1 0 0 0 0 1 0 0 0 0 1 0 0 0 0.36 0"/>
<feBlend mode="normal" in2="effect2_innerShadow_804_49" result="effect3_innerShadow_804_49"/>
</filter>
<filter id="filter3_dii_804_49" x="22.666" y="42.1318" width="6.73633" height="6.02129" filterUnits="userSpaceOnUse" color-interpolation-filters="sRGB">
<feFlood flood-opacity="0" result="BackgroundImageFix"/>
<feColorMatrix in="SourceAlpha" type="matrix" values="0 0 0 0 0 0 0 0 0 0 0 0 0 0 0 0 0 0 127 0" result="hardAlpha"/>
<feOffset dy="0.5"/>
<feGaussianBlur stdDeviation="0.5"/>
<feComposite in2="hardAlpha" operator="out"/>
<feColorMatrix type="matrix" values="0 0 0 0 0 0 0 0 0 0 0 0 0 0 0 0 0 0 0.21 0"/>
<feBlend mode="normal" in2="BackgroundImageFix" result="effect1_dropShadow_804_49"/>
<feBlend mode="normal" in="SourceGraphic" in2="effect1_dropShadow_804_49" result="shape"/>
<feColorMatrix in="SourceAlpha" type="matrix" values="0 0 0 0 0 0 0 0 0 0 0 0 0 0 0 0 0 0 127 0" result="hardAlpha"/>
<feOffset dx="0.1"/>
<feGaussianBlur stdDeviation="0.1"/>
<feComposite in2="hardAlpha" operator="arithmetic" k2="-1" k3="1"/>
<feColorMatrix type="matrix" values="0 0 0 0 0 0 0 0 0 0 0 0 0 0 0 0 0 0 0.25 0"/>
<feBlend mode="normal" in2="shape" result="effect2_innerShadow_804_49"/>
<feColorMatrix in="SourceAlpha" type="matrix" values="0 0 0 0 0 0 0 0 0 0 0 0 0 0 0 0 0 0 127 0" result="hardAlpha"/>
<feOffset dx="-0.3"/>
<feGaussianBlur stdDeviation="0.05"/>
<feComposite in2="hardAlpha" operator="arithmetic" k2="-1" k3="1"/>
<feColorMatrix type="matrix" values="0 0 0 0 1 0 0 0 0 1 0 0 0 0 1 0 0 0 0.36 0"/>
<feBlend mode="normal" in2="effect2_innerShadow_804_49" result="effect3_innerShadow_804_49"/>
</filter>
<filter id="filter4_dii_804_49" x="32.207" y="42.1603" width="5.97656" height="6.04732" filterUnits="userSpaceOnUse" color-interpolation-filters="sRGB">
<feFlood flood-opacity="0" result="BackgroundImageFix"/>
<feColorMatrix in="SourceAlpha" type="matrix" values="0 0 0 0 0 0 0 0 0 0 0 0 0 0 0 0 0 0 127 0" result="hardAlpha"/>
<feOffset dy="0.5"/>
<feGaussianBlur stdDeviation="0.5"/>
<feComposite in2="hardAlpha" operator="out"/>
<feColorMatrix type="matrix" values="0 0 0 0 0 0 0 0 0 0 0 0 0 0 0 0 0 0 0.21 0"/>
<feBlend mode="normal" in2="BackgroundImageFix" result="effect1_dropShadow_804_49"/>
<feBlend mode="normal" in="SourceGraphic" in2="effect1_dropShadow_804_49" result="shape"/>
<feColorMatrix in="SourceAlpha" type="matrix" values="0 0 0 0 0 0 0 0 0 0 0 0 0 0 0 0 0 0 127 0" result="hardAlpha"/>
<feOffset dx="0.1"/>
<feGaussianBlur stdDeviation="0.1"/>
<feComposite in2="hardAlpha" operator="arithmetic" k2="-1" k3="1"/>
<feColorMatrix type="matrix" values="0 0 0 0 0 0 0 0 0 0 0 0 0 0 0 0 0 0 0.25 0"/>
<feBlend mode="normal" in2="shape" result="effect2_innerShadow_804_49"/>
<feColorMatrix in="SourceAlpha" type="matrix" values="0 0 0 0 0 0 0 0 0 0 0 0 0 0 0 0 0 0 127 0" result="hardAlpha"/>
<feOffset dx="-0.3"/>
<feGaussianBlur stdDeviation="0.05"/>
<feComposite in2="hardAlpha" operator="arithmetic" k2="-1" k3="1"/>
<feColorMatrix type="matrix" values="0 0 0 0 1 0 0 0 0 1 0 0 0 0 1 0 0 0 0.36 0"/>
<feBlend mode="normal" in2="effect2_innerShadow_804_49" result="effect3_innerShadow_804_49"/>
</filter>
<filter id="filter5_dii_804_49" x="18.0938" y="42.1587" width="5.98047" height="6.04958" filterUnits="userSpaceOnUse" color-interpolation-filters="sRGB">
<feFlood flood-opacity="0" result="BackgroundImageFix"/>
<feColorMatrix in="SourceAlpha" type="matrix" values="0 0 0 0 0 0 0 0 0 0 0 0 0 0 0 0 0 0 127 0" result="hardAlpha"/>
<feOffset dy="0.5"/>
<feGaussianBlur stdDeviation="0.5"/>
<feComposite in2="hardAlpha" operator="out"/>
<feColorMatrix type="matrix" values="0 0 0 0 0 0 0 0 0 0 0 0 0 0 0 0 0 0 0.21 0"/>
<feBlend mode="normal" in2="BackgroundImageFix" result="effect1_dropShadow_804_49"/>
<feBlend mode="normal" in="SourceGraphic" in2="effect1_dropShadow_804_49" result="shape"/>
<feColorMatrix in="SourceAlpha" type="matrix" values="0 0 0 0 0 0 0 0 0 0 0 0 0 0 0 0 0 0 127 0" result="hardAlpha"/>
<feOffset dx="0.1"/>
<feGaussianBlur stdDeviation="0.1"/>
<feComposite in2="hardAlpha" operator="arithmetic" k2="-1" k3="1"/>
<feColorMatrix type="matrix" values="0 0 0 0 0 0 0 0 0 0 0 0 0 0 0 0 0 0 0.25 0"/>
<feBlend mode="normal" in2="shape" result="effect2_innerShadow_804_49"/>
<feColorMatrix in="SourceAlpha" type="matrix" values="0 0 0 0 0 0 0 0 0 0 0 0 0 0 0 0 0 0 127 0" result="hardAlpha"/>
<feOffset dx="-0.3"/>
<feGaussianBlur stdDeviation="0.05"/>
<feComposite in2="hardAlpha" operator="arithmetic" k2="-1" k3="1"/>
<feColorMatrix type="matrix" values="0 0 0 0 1 0 0 0 0 1 0 0 0 0 1 0 0 0 0.36 0"/>
<feBlend mode="normal" in2="effect2_innerShadow_804_49" result="effect3_innerShadow_804_49"/>
</filter>
<filter id="filter6_i_804_49" x="30.7529" y="19.7446" width="6.4541" height="11.2836" filterUnits="userSpaceOnUse" color-interpolation-filters="sRGB">
<feFlood flood-opacity="0" result="BackgroundImageFix"/>
<feBlend mode="normal" in="SourceGraphic" in2="BackgroundImageFix" result="shape"/>
<feColorMatrix in="SourceAlpha" type="matrix" values="0 0 0 0 0 0 0 0 0 0 0 0 0 0 0 0 0 0 127 0" result="hardAlpha"/>
<feOffset dy="2"/>
<feGaussianBlur stdDeviation="1"/>
<feComposite in2="hardAlpha" operator="arithmetic" k2="-1" k3="1"/>
<feColorMatrix type="matrix" values="0 0 0 0 1 0 0 0 0 1 0 0 0 0 1 0 0 0 0.11 0"/>
<feBlend mode="normal" in2="shape" result="effect1_innerShadow_804_49"/>
</filter>
<filter id="filter7_i_804_49" x="23.7939" y="19.3179" width="6.36328" height="18.8801" filterUnits="userSpaceOnUse" color-interpolation-filters="sRGB">
<feFlood flood-opacity="0" result="BackgroundImageFix"/>
<feBlend mode="normal" in="SourceGraphic" in2="BackgroundImageFix" result="shape"/>
<feColorMatrix in="SourceAlpha" type="matrix" values="0 0 0 0 0 0 0 0 0 0 0 0 0 0 0 0 0 0 127 0" result="hardAlpha"/>
<feOffset dy="2"/>
<feGaussianBlur stdDeviation="1"/>
<feComposite in2="hardAlpha" operator="arithmetic" k2="-1" k3="1"/>
<feColorMatrix type="matrix" values="0 0 0 0 1 0 0 0 0 1 0 0 0 0 1 0 0 0 0.11 0"/>
<feBlend mode="normal" in2="shape" result="effect1_innerShadow_804_49"/>
</filter>
<filter id="filter8_i_804_49" x="30.5" y="10.3261" width="5.88086" height="12.3086" filterUnits="userSpaceOnUse" color-interpolation-filters="sRGB">
<feFlood flood-opacity="0" result="BackgroundImageFix"/>
<feBlend mode="normal" in="SourceGraphic" in2="BackgroundImageFix" result="shape"/>
<feColorMatrix in="SourceAlpha" type="matrix" values="0 0 0 0 0 0 0 0 0 0 0 0 0 0 0 0 0 0 127 0" result="hardAlpha"/>
<feOffset dy="2"/>
<feGaussianBlur stdDeviation="1"/>
<feComposite in2="hardAlpha" operator="arithmetic" k2="-1" k3="1"/>
<feColorMatrix type="matrix" values="0 0 0 0 1 0 0 0 0 1 0 0 0 0 1 0 0 0 0.11 0"/>
<feBlend mode="normal" in2="shape" result="effect1_innerShadow_804_49"/>
</filter>
<filter id="filter9_i_804_49" x="30.5771" y="27.7943" width="6.28125" height="10.1527" filterUnits="userSpaceOnUse" color-interpolation-filters="sRGB">
<feFlood flood-opacity="0" result="BackgroundImageFix"/>
<feBlend mode="normal" in="SourceGraphic" in2="BackgroundImageFix" result="shape"/>
<feColorMatrix in="SourceAlpha" type="matrix" values="0 0 0 0 0 0 0 0 0 0 0 0 0 0 0 0 0 0 127 0" result="hardAlpha"/>
<feOffset dy="2"/>
<feGaussianBlur stdDeviation="1"/>
<feComposite in2="hardAlpha" operator="arithmetic" k2="-1" k3="1"/>
<feColorMatrix type="matrix" values="0 0 0 0 1 0 0 0 0 1 0 0 0 0 1 0 0 0 0.11 0"/>
<feBlend mode="normal" in2="shape" result="effect1_innerShadow_804_49"/>
</filter>
<filter id="filter10_i_804_49" x="25.3994" y="14.9517" width="5.39453" height="18.9445" filterUnits="userSpaceOnUse" color-interpolation-filters="sRGB">
<feFlood flood-opacity="0" result="BackgroundImageFix"/>
<feBlend mode="normal" in="SourceGraphic" in2="BackgroundImageFix" result="shape"/>
<feColorMatrix in="SourceAlpha" type="matrix" values="0 0 0 0 0 0 0 0 0 0 0 0 0 0 0 0 0 0 127 0" result="hardAlpha"/>
<feOffset dy="2"/>
<feGaussianBlur stdDeviation="1"/>
<feComposite in2="hardAlpha" operator="arithmetic" k2="-1" k3="1"/>
<feColorMatrix type="matrix" values="0 0 0 0 1 0 0 0 0 1 0 0 0 0 1 0 0 0 0.11 0"/>
<feBlend mode="normal" in2="shape" result="effect1_innerShadow_804_49"/>
</filter>
<filter id="filter11_i_804_49" x="24.5986" y="17.1545" width="6.02637" height="20.3171" filterUnits="userSpaceOnUse" color-interpolation-filters="sRGB">
<feFlood flood-opacity="0" result="BackgroundImageFix"/>
<feBlend mode="normal" in="SourceGraphic" in2="BackgroundImageFix" result="shape"/>
<feColorMatrix in="SourceAlpha" type="matrix" values="0 0 0 0 0 0 0 0 0 0 0 0 0 0 0 0 0 0 127 0" result="hardAlpha"/>
<feOffset dy="2"/>
<feGaussianBlur stdDeviation="1"/>
<feComposite in2="hardAlpha" operator="arithmetic" k2="-1" k3="1"/>
<feColorMatrix type="matrix" values="0 0 0 0 1 0 0 0 0 1 0 0 0 0 1 0 0 0 0.11 0"/>
<feBlend mode="normal" in2="shape" result="effect1_innerShadow_804_49"/>
</filter>
<filter id="filter12_i_804_49" x="26.5977" y="13.0029" width="4.19629" height="15.7568" filterUnits="userSpaceOnUse" color-interpolation-filters="sRGB">
<feFlood flood-opacity="0" result="BackgroundImageFix"/>
<feBlend mode="normal" in="SourceGraphic" in2="BackgroundImageFix" result="shape"/>
<feColorMatrix in="SourceAlpha" type="matrix" values="0 0 0 0 0 0 0 0 0 0 0 0 0 0 0 0 0 0 127 0" result="hardAlpha"/>
<feOffset dy="2"/>
<feGaussianBlur stdDeviation="1"/>
<feComposite in2="hardAlpha" operator="arithmetic" k2="-1" k3="1"/>
<feColorMatrix type="matrix" values="0 0 0 0 1 0 0 0 0 1 0 0 0 0 1 0 0 0 0.11 0"/>
<feBlend mode="normal" in2="shape" result="effect1_innerShadow_804_49"/>
</filter>
<filter id="filter13_i_804_49" x="28.0791" y="10.0061" width="2.6709" height="12.373" filterUnits="userSpaceOnUse" color-interpolation-filters="sRGB">
<feFlood flood-opacity="0" result="BackgroundImageFix"/>
<feBlend mode="normal" in="SourceGraphic" in2="BackgroundImageFix" result="shape"/>
<feColorMatrix in="SourceAlpha" type="matrix" values="0 0 0 0 0 0 0 0 0 0 0 0 0 0 0 0 0 0 127 0" result="hardAlpha"/>
<feOffset dy="2"/>
<feGaussianBlur stdDeviation="1"/>
<feComposite in2="hardAlpha" operator="arithmetic" k2="-1" k3="1"/>
<feColorMatrix type="matrix" values="0 0 0 0 1 0 0 0 0 1 0 0 0 0 1 0 0 0 0.11 0"/>
<feBlend mode="normal" in2="shape" result="effect1_innerShadow_804_49"/>
</filter>
<clipPath id="clip0_804_49">
<rect width="41" height="41" fill="white" transform="translate(10 9)"/>
</clipPath>
</defs>
</svg>
