<svg width="60" height="60" viewBox="0 0 60 60" fill="none" xmlns="http://www.w3.org/2000/svg">
<circle cx="30" cy="30" r="28.5" fill="#00003A" stroke="#0B0B42" stroke-width="3"/>
<path d="M30.9754 51C30.7271 51 30.4952 50.9303 30.2798 50.8081L28.077 49.4292C27.7457 49.2371 27.9113 49.1673 28.0108 49.1324C28.4579 48.9753 28.5407 48.9403 29.0045 48.6612C29.0542 48.6262 29.1206 48.6437 29.1702 48.6786L30.8596 49.7433C30.9259 49.7782 31.0087 49.7782 31.0583 49.7433L37.667 45.7111C37.7332 45.6763 37.7665 45.6063 37.7665 45.5192V37.4723C37.7665 37.3849 37.7332 37.3153 37.667 37.2802L31.0583 33.2656C30.9921 33.2305 30.9092 33.2305 30.8596 33.2656L24.2509 37.2802C24.1847 37.3151 24.1514 37.4024 24.1514 37.4722V45.519C24.1514 45.589 24.1847 45.6761 24.2509 45.7111L26.0563 46.8108C27.0336 47.3344 27.6464 46.7235 27.6464 46.1126V38.1704C27.6464 38.0657 27.7292 37.9609 27.8451 37.9609H28.6898C28.7892 37.9609 28.8886 38.0482 28.8886 38.1704V46.1126C28.8886 47.4915 28.1763 48.2945 26.9341 48.2945C26.5532 48.2945 26.2551 48.2945 25.4103 47.858L23.6712 46.8108C23.2406 46.549 22.9756 46.0602 22.9756 45.5366V37.4897C22.9756 36.9661 23.2406 36.4772 23.6712 36.2155L30.2798 32.1833C30.694 31.9389 31.2572 31.9389 31.6712 32.1833L38.2798 36.2155C38.7105 36.4772 38.9756 36.9661 38.9756 37.4897V45.5366C38.9756 46.0602 38.7105 46.549 38.2798 46.8108L31.6712 50.843C31.4558 50.9478 31.2075 51 30.9756 51H30.9754ZM33.0127 45.4668C30.1143 45.4668 29.518 44.0704 29.518 42.8834C29.518 42.7786 29.6008 42.6739 29.7168 42.6739H30.578C30.6774 42.6739 30.7602 42.7437 30.7602 42.8485C30.8928 43.7736 31.2737 44.2274 33.0294 44.2274C34.4206 44.2274 35.0171 43.8958 35.0171 43.1103C35.0171 42.6564 34.8513 42.3249 32.6816 42.0979C30.8761 41.9058 29.7499 41.487 29.7499 39.9684C29.7499 38.5545 30.8763 37.7166 32.7644 37.7166C34.8844 37.7166 35.928 38.4847 36.0605 40.1602C36.0605 40.2128 36.0439 40.265 36.0108 40.3174C35.9775 40.3523 35.928 40.3872 35.8782 40.3872H35.0169C34.9341 40.3872 34.8513 40.3174 34.8348 40.2301C34.636 39.2702 34.1225 38.9559 32.7644 38.9559C31.2406 38.9559 31.0583 39.5146 31.0583 39.9334C31.0583 40.4396 31.2737 40.5967 33.3275 40.8759C35.3647 41.1553 36.3255 41.5568 36.3255 43.0579C36.3089 44.594 35.1164 45.4668 33.0127 45.4668Z" fill="white"/>
<g filter="url(#filter0_i_803_2)">
<path d="M17.2921 24.0044C17.2921 23.8056 17.1837 23.6178 17.0104 23.5184L12.4169 20.8242C12.341 20.7799 12.2544 20.7579 12.1678 20.7468H12.1244C12.0377 20.7468 11.951 20.7799 11.8752 20.8242L7.28168 23.5184C7.10827 23.6178 7 23.8055 7 24.0044L7.01087 31.248C7.01087 31.3474 7.06505 31.4467 7.15167 31.491C7.23837 31.5462 7.34664 31.5462 7.42257 31.491L10.1527 29.9009C10.326 29.8015 10.4344 29.6138 10.4344 29.4151V26.0251C10.4344 25.8263 10.5426 25.6386 10.716 25.5392L11.8752 24.8546C11.9619 24.7994 12.0594 24.7772 12.1569 24.7772C12.2544 24.7772 12.3519 24.7994 12.4278 24.8546L13.5869 25.5392C13.7604 25.6386 13.8686 25.8262 13.8686 26.0251V29.4151C13.8686 29.6138 13.977 29.8015 14.1503 29.9009L16.8804 31.491C16.9671 31.5462 17.0754 31.5462 17.1621 31.491C17.2488 31.4467 17.303 31.3474 17.303 31.248L17.2921 24.0044ZM39.3713 14.0332C39.2847 13.9889 39.1764 13.9889 39.1004 14.0332C39.0138 14.0884 38.9596 14.1767 38.9596 14.276V21.4536C38.9596 21.5198 38.9272 21.586 38.8622 21.6302C38.7972 21.6633 38.7321 21.6633 38.6672 21.6302L37.5188 20.9567C37.4346 20.9078 37.3394 20.8821 37.2425 20.8821C37.1456 20.8821 37.0504 20.9078 36.9662 20.9567L32.3727 23.662C32.1994 23.7614 32.091 23.9491 32.091 24.1479V29.5475C32.091 29.7462 32.1994 29.934 32.3727 30.0334L36.9662 32.7388C37.0504 32.7876 37.1456 32.8133 37.2425 32.8133C37.3394 32.8133 37.4346 32.7876 37.5188 32.7388L42.1123 30.0334C42.2856 29.934 42.394 29.7463 42.394 29.5475V16.087C42.394 15.8772 42.2856 15.6896 42.1123 15.5901L39.3714 14.0332H39.3713ZM38.9489 27.7697C38.9489 27.825 38.9272 27.8691 38.8838 27.8912L37.313 28.8187C37.291 28.8296 37.2669 28.8353 37.2425 28.8353C37.2181 28.8353 37.194 28.8296 37.1721 28.8187L35.6012 27.8912C35.5578 27.8691 35.5362 27.8139 35.5362 27.7697V25.9146C35.5362 25.8594 35.5578 25.8152 35.6012 25.7932L37.1721 24.8656C37.194 24.8547 37.2181 24.849 37.2425 24.849C37.2669 24.849 37.291 24.8547 37.313 24.8656L38.8838 25.7932C38.9272 25.8152 38.9489 25.8705 38.9489 25.9146V27.7697ZM54.6578 25.8705C54.8312 25.7711 54.9287 25.5834 54.9287 25.3845V24.0706C54.9287 23.8718 54.8203 23.6841 54.6578 23.5847L50.0968 20.8905C50.0126 20.8416 49.9174 20.8159 49.8205 20.8159C49.7237 20.8159 49.6285 20.8416 49.5443 20.8905L44.9508 23.5957C44.7774 23.6951 44.6691 23.8828 44.6691 24.0816V29.4813C44.6691 29.68 44.7774 29.8677 44.9508 29.9671L49.5118 32.6172C49.6852 32.7166 49.8909 32.7166 50.0535 32.6172L52.816 31.0494C52.9027 31.0052 52.9569 30.9058 52.9569 30.8064C52.9569 30.7071 52.9027 30.6077 52.816 30.5635L48.2009 27.8581C48.1142 27.803 48.0601 27.7146 48.0601 27.6152V25.9258C48.0601 25.8264 48.1142 25.7271 48.2009 25.6828L49.6418 24.8436C49.684 24.8165 49.7328 24.8022 49.7826 24.8022C49.8325 24.8022 49.8813 24.8165 49.9235 24.8436L51.3643 25.6828C51.451 25.738 51.5052 25.8263 51.5052 25.9258V27.2509C51.5052 27.3502 51.5594 27.4496 51.646 27.4937C51.7327 27.5489 51.841 27.5489 51.9277 27.4937L54.6578 25.8705V25.8705Z" fill="white"/>
</g>
<path d="M49.7501 25.6165C49.7662 25.6057 49.785 25.6 49.8042 25.6C49.8235 25.6 49.8423 25.6057 49.8584 25.6165L50.7359 26.1355C50.7685 26.1575 50.7901 26.1906 50.7901 26.2349V27.2728C50.7901 27.317 50.7685 27.3501 50.7359 27.3722L49.8584 27.8912C49.8423 27.902 49.8235 27.9077 49.8042 27.9077C49.785 27.9077 49.7662 27.902 49.7501 27.8912L48.8725 27.3722C48.84 27.3501 48.8184 27.317 48.8184 27.2728V26.2349C48.8184 26.1906 48.84 26.1575 48.8725 26.1355L49.7501 25.6165V25.6165Z" fill="#539E43"/>
<g filter="url(#filter1_i_803_2)">
<path d="M24.9732 20.9125C24.8891 20.8637 24.7939 20.838 24.697 20.838C24.6001 20.838 24.5049 20.8637 24.4208 20.9125L19.8598 23.5956C19.6864 23.695 19.5889 23.8827 19.5889 24.0815V29.4591C19.5889 29.6578 19.6972 29.8456 19.8598 29.9449L24.4208 32.6282C24.5049 32.677 24.6001 32.7027 24.697 32.7027C24.7939 32.7027 24.8891 32.677 24.9732 32.6282L29.5343 29.9449C29.7077 29.8456 29.8052 29.6578 29.8052 29.4591V24.0816C29.8052 23.8828 29.6968 23.6951 29.5343 23.5957L24.9732 20.9125Z" fill="url(#paint0_linear_803_2)"/>
</g>
<defs>
<filter id="filter0_i_803_2" x="7" y="14" width="48.9287" height="19.8133" filterUnits="userSpaceOnUse" color-interpolation-filters="sRGB">
<feFlood flood-opacity="0" result="BackgroundImageFix"/>
<feBlend mode="normal" in="SourceGraphic" in2="BackgroundImageFix" result="shape"/>
<feColorMatrix in="SourceAlpha" type="matrix" values="0 0 0 0 0 0 0 0 0 0 0 0 0 0 0 0 0 0 127 0" result="hardAlpha"/>
<feOffset dx="1" dy="1"/>
<feGaussianBlur stdDeviation="0.5"/>
<feComposite in2="hardAlpha" operator="arithmetic" k2="-1" k3="1"/>
<feColorMatrix type="matrix" values="0 0 0 0 0 0 0 0 0 0 0 0 0 0 0 0 0 0 0.17 0"/>
<feBlend mode="normal" in2="shape" result="effect1_innerShadow_803_2"/>
</filter>
<filter id="filter1_i_803_2" x="19.5889" y="20.838" width="11.2168" height="12.8647" filterUnits="userSpaceOnUse" color-interpolation-filters="sRGB">
<feFlood flood-opacity="0" result="BackgroundImageFix"/>
<feBlend mode="normal" in="SourceGraphic" in2="BackgroundImageFix" result="shape"/>
<feColorMatrix in="SourceAlpha" type="matrix" values="0 0 0 0 0 0 0 0 0 0 0 0 0 0 0 0 0 0 127 0" result="hardAlpha"/>
<feOffset dx="1" dy="1"/>
<feGaussianBlur stdDeviation="0.5"/>
<feComposite in2="hardAlpha" operator="arithmetic" k2="-1" k3="1"/>
<feColorMatrix type="matrix" values="0 0 0 0 1 0 0 0 0 1 0 0 0 0 1 0 0 0 0.12 0"/>
<feBlend mode="normal" in2="shape" result="effect1_innerShadow_803_2"/>
</filter>
<linearGradient id="paint0_linear_803_2" x1="26.5552" y1="22.9128" x2="21.4192" y2="30.8306" gradientUnits="userSpaceOnUse">
<stop stop-color="#41873F"/>
<stop offset="0.3288" stop-color="#418B3D"/>
<stop offset="0.6352" stop-color="#419637"/>
<stop offset="0.9319" stop-color="#3FA92D"/>
<stop offset="1" stop-color="#3FAE2A"/>
</linearGradient>
</defs>
</svg>
