<svg width="15" height="15" viewBox="0 0 15 15" fill="none" xmlns="http://www.w3.org/2000/svg">
<path d="M3.47776 15H3.49985C6.53164 14.9254 9.42482 13.7147 11.6063 11.6079C13.7138 9.42819 14.9251 6.53591 14.9999 3.50482C15.0044 3.08021 14.8377 2.67167 14.5374 2.37148L12.3955 0.231077C12.0873 -0.0770256 11.5878 -0.0770256 11.2796 0.231077L8.12289 3.38801C7.8148 3.69621 7.8148 4.19579 8.12289 4.50399L9.38242 5.76123C9.14882 6.63406 8.7185 7.44183 8.12446 8.12262C7.44494 8.71691 6.63827 9.14754 5.76639 9.38145L4.5037 8.12341C4.19552 7.81531 3.69597 7.81531 3.38779 8.12341L0.231062 11.2803C-0.0770207 11.5885 -0.0770207 12.0881 0.231062 12.3963L2.3729 14.5375C2.66494 14.8326 3.0626 14.9991 3.47776 15ZM11.8391 1.90583H11.8431L13.4215 3.48745C13.3571 6.10665 12.3116 8.60618 10.492 10.4911C8.6071 12.3102 6.10823 13.3557 3.4896 13.4207L1.90571 11.8383L3.95127 9.79816L4.97168 10.8179C5.11765 10.9655 5.31651 11.0487 5.52411 11.0491C5.57955 11.0491 5.63483 11.0433 5.68905 11.0317C7.00412 10.7408 8.22517 10.1245 9.24037 9.23939C10.1255 8.22413 10.7417 7.00299 11.0326 5.68784C11.0875 5.42641 11.0064 5.15497 10.8172 4.96648L9.79753 3.946L11.8391 1.90583Z" fill="url(#paint0_linear_0_95)"/>
<defs>
<linearGradient id="paint0_linear_0_95" x1="3.47258e-06" y1="-4.08227" x2="7.68835" y2="-6.05218" gradientUnits="userSpaceOnUse">
<stop stop-color="#226CD0"/>
<stop offset="0.625" stop-color="#42FBFE"/>
</linearGradient>
</defs>
</svg>
