<svg width="17" height="17" viewBox="0 0 17 17" fill="none" xmlns="http://www.w3.org/2000/svg">
<g clip-path="url(#clip0_727_472)">
<path d="M11.0045 7.28088C11.0478 7.70513 11.0726 8.11576 11.0726 8.50004C11.0726 9.21943 10.9856 10.0317 10.8527 10.853C10.0314 10.986 9.21907 11.073 8.49967 11.073C7.78354 11.073 6.97148 10.9863 6.14662 10.8528C6.0137 10.0315 5.92676 9.21935 5.92676 8.50004C5.92676 8.11589 5.95155 7.70524 5.99491 7.28088C6.86061 7.41946 7.72421 7.51046 8.4997 7.51046C9.27518 7.51046 10.1388 7.41946 11.0045 7.28088Z" fill="url(#paint0_linear_727_472)"/>
<path d="M12.1754 7.06706C12.229 7.56354 12.2601 8.04693 12.2601 8.50004C12.2601 9.16122 12.1939 9.88654 12.0885 10.6227C13.5833 10.3108 14.965 9.91228 15.7051 9.68545C15.9443 9.61213 16.0383 9.58298 16.1644 9.53253C16.2274 9.50733 16.2852 9.48169 16.3604 9.44572C16.3974 9.13564 16.4163 8.82006 16.4163 8.50004C16.4163 7.6541 16.2837 6.83915 16.038 6.07487L15.974 6.09501C15.2001 6.33046 13.7512 6.74669 12.1754 7.06706Z" fill="url(#paint1_linear_727_472)"/>
<path d="M15.5882 4.97107C14.8102 5.20687 13.46 5.59002 12.0131 5.88832C11.6798 3.86258 11.0956 1.84213 10.8145 0.927168C12.9045 1.56524 14.6274 3.04483 15.5882 4.97107Z" fill="url(#paint2_linear_727_472)"/>
<path d="M10.8458 6.10415C10.0267 6.23649 9.21696 6.32296 8.4997 6.32296C7.78245 6.32296 6.97272 6.23649 6.15365 6.10415C6.46751 4.18738 7.0278 2.22933 7.31427 1.29462C7.38758 1.0554 7.41674 0.961445 7.46718 0.835333C7.49238 0.772336 7.51803 0.71455 7.55399 0.639273C7.86407 0.602363 8.17966 0.583374 8.49967 0.583374C8.83397 0.583374 9.16343 0.604094 9.48683 0.644321C9.4937 0.670561 9.50004 0.694047 9.50631 0.716266C9.52482 0.781917 9.55385 0.874182 9.60256 1.029L9.60768 1.04526C9.85191 1.82156 10.4991 3.9868 10.8458 6.10415Z" fill="url(#paint3_linear_727_472)"/>
<path d="M4.98621 5.8883C5.31801 3.87149 5.89838 1.86192 6.1789 0.946643L6.18487 0.92716C4.09482 1.56523 2.37195 3.04482 1.41113 4.97106C2.1891 5.20685 3.53928 5.58999 4.98621 5.8883Z" fill="url(#paint4_linear_727_472)"/>
<path d="M0.961378 6.07487C0.71569 6.83915 0.583008 7.6541 0.583008 8.50004C0.583008 8.83097 0.603313 9.15715 0.642744 9.47742L0.76751 9.51901L0.768503 9.51934L0.769726 9.51975L0.770589 9.52003C0.810745 9.53333 1.98769 9.92201 3.53764 10.3076C3.975 10.4165 4.4381 10.524 4.91083 10.6226C4.80542 9.88647 4.73926 9.16119 4.73926 8.50004C4.73926 8.04679 4.77035 7.5634 4.82387 7.06704C3.24774 6.74658 1.79854 6.33021 1.02481 6.0948L1.01943 6.09316L0.961378 6.07487Z" fill="url(#paint5_linear_727_472)"/>
<path d="M8.49967 12.2605C9.16085 12.2605 9.88618 12.1943 10.6223 12.0889C10.3104 13.5836 9.91192 14.9653 9.68509 15.7054C9.61177 15.9447 9.58262 16.0386 9.53217 16.1647C9.50697 16.2277 9.48132 16.2855 9.44536 16.3608C9.13527 16.3977 8.81969 16.4167 8.49967 16.4167C8.17966 16.4167 7.86407 16.3977 7.55399 16.3608C7.51803 16.2855 7.49238 16.2277 7.46718 16.1647C7.41674 16.0386 7.38759 15.9447 7.31427 15.7055C7.08745 14.9654 6.68899 13.5838 6.37709 12.0891C7.11081 12.1942 7.83623 12.2605 8.49967 12.2605Z" fill="url(#paint6_linear_727_472)"/>
<path d="M3.25093 11.46C2.27079 11.2162 1.43601 10.9712 0.926792 10.8148C1.69329 13.3256 3.67414 15.3064 6.18487 16.0729L6.1789 16.0534C5.93396 15.2542 5.4604 13.6207 5.12333 11.8766C4.46783 11.7498 3.83052 11.6042 3.25093 11.46Z" fill="url(#paint7_linear_727_472)"/>
<path d="M16.0531 10.8208C15.2538 11.0658 13.6203 11.5393 11.8761 11.8764C11.539 13.6206 11.0654 15.2542 10.8205 16.0534L10.8145 16.0729C13.3252 15.3064 15.3061 13.3256 16.0726 10.8148L16.0531 10.8208Z" fill="url(#paint8_linear_727_472)"/>
<path d="M0.666173 9.49751C0.693578 9.50108 0.715914 9.50482 0.723326 9.50652C0.729821 9.50812 0.73999 9.5108 0.743681 9.51182L0.751829 9.51416L0.756215 9.51547L0.760831 9.51689L0.764698 9.51811C0.762526 9.51743 0.718539 9.50641 0.666173 9.49751Z" fill="url(#paint9_linear_727_472)"/>
</g>
<defs>
<linearGradient id="paint0_linear_727_472" x1="16.4163" y1="-3.72568" x2="8.30086" y2="-5.80504" gradientUnits="userSpaceOnUse">
<stop stop-color="#226CD0"/>
<stop offset="0.625" stop-color="#42FBFE"/>
</linearGradient>
<linearGradient id="paint1_linear_727_472" x1="16.4163" y1="-3.72568" x2="8.30086" y2="-5.80504" gradientUnits="userSpaceOnUse">
<stop stop-color="#226CD0"/>
<stop offset="0.625" stop-color="#42FBFE"/>
</linearGradient>
<linearGradient id="paint2_linear_727_472" x1="16.4163" y1="-3.72568" x2="8.30086" y2="-5.80504" gradientUnits="userSpaceOnUse">
<stop stop-color="#226CD0"/>
<stop offset="0.625" stop-color="#42FBFE"/>
</linearGradient>
<linearGradient id="paint3_linear_727_472" x1="16.4163" y1="-3.72568" x2="8.30086" y2="-5.80504" gradientUnits="userSpaceOnUse">
<stop stop-color="#226CD0"/>
<stop offset="0.625" stop-color="#42FBFE"/>
</linearGradient>
<linearGradient id="paint4_linear_727_472" x1="16.4163" y1="-3.72568" x2="8.30086" y2="-5.80504" gradientUnits="userSpaceOnUse">
<stop stop-color="#226CD0"/>
<stop offset="0.625" stop-color="#42FBFE"/>
</linearGradient>
<linearGradient id="paint5_linear_727_472" x1="16.4163" y1="-3.72568" x2="8.30086" y2="-5.80504" gradientUnits="userSpaceOnUse">
<stop stop-color="#226CD0"/>
<stop offset="0.625" stop-color="#42FBFE"/>
</linearGradient>
<linearGradient id="paint6_linear_727_472" x1="16.4163" y1="-3.72568" x2="8.30086" y2="-5.80504" gradientUnits="userSpaceOnUse">
<stop stop-color="#226CD0"/>
<stop offset="0.625" stop-color="#42FBFE"/>
</linearGradient>
<linearGradient id="paint7_linear_727_472" x1="16.4163" y1="-3.72568" x2="8.30086" y2="-5.80504" gradientUnits="userSpaceOnUse">
<stop stop-color="#226CD0"/>
<stop offset="0.625" stop-color="#42FBFE"/>
</linearGradient>
<linearGradient id="paint8_linear_727_472" x1="16.4163" y1="-3.72568" x2="8.30086" y2="-5.80504" gradientUnits="userSpaceOnUse">
<stop stop-color="#226CD0"/>
<stop offset="0.625" stop-color="#42FBFE"/>
</linearGradient>
<linearGradient id="paint9_linear_727_472" x1="16.4163" y1="-3.72568" x2="8.30086" y2="-5.80504" gradientUnits="userSpaceOnUse">
<stop stop-color="#226CD0"/>
<stop offset="0.625" stop-color="#42FBFE"/>
</linearGradient>
<clipPath id="clip0_727_472">
<rect width="17" height="17" fill="white"/>
</clipPath>
</defs>
</svg>
